<?xml version="1.0" encoding="UTF-8" standalone="no"?>
<svg
   version="1.1"
   id="Layer_1"
   x="0px"
   y="0px"
   width="170"
   viewBox="0 0 170 90"
   enable-background="new 0 0 192 192"
   xml:space="preserve"
   height="90"
   xmlns="http://www.w3.org/2000/svg"
   xmlns:svg="http://www.w3.org/2000/svg"><defs
   id="defs8" />








<path
   fill="#fcfcfc"
   opacity="1"
   stroke="none"
   d="m 105.45882,68.114927 c -1.45746,6.89814 -2.80235,13.40138 -4.29852,20.636177 -8.686427,-3.964107 -15.750847,-9.673207 -20.990431,-17.559767 -0.682273,-1.02694 -0.403144,-2.89892 -0.155006,-4.30643 3.189072,-18.0891 7.88195,-35.737989 16.25901,-52.189714 0.98349,-1.9315 3.18102,-3.809754 5.232307,-4.535839 9.39832,-3.3266642 19.10355,-5.2351232 30.03602,-5.2736902 -8.45506,13.8943332 -15.79949,27.3587192 -17.68623,43.0768332 15.30952,-14.38728 30.40612,-28.574483 45.56889,-42.8238532 11.16891,14.5880092 8.97623,27.4811052 -2.75665,35.7012522 -6.89411,4.830051 -14.2439,9.009651 -22.32518,14.067991 8.80371,7.04443 17.17112,13.73975 25.8797,20.70805 -7.76357,7.45551 -17.44059,10.8533 -28.0962,11.77296 -1.23059,0.10621 -2.95825,-1.45548 -3.89352,-2.67488 -6.65009,-8.67028 -13.1539,-17.45278 -19.80963,-26.34021 -0.80159,2.62689 -1.82679,5.98655 -2.96456,9.74112 z"
   id="path6"
   style="fill:#333333" /><path
   fill="#fcfcfc"
   opacity="1"
   stroke="none"
   d="m 19.010485,37.550845 c 2.322757,-7.171021 4.371894,-14.02636 6.78648,-20.750466 0.534477,-1.488403 2.227817,-3.408081 3.612392,-3.613456 14.768845,-2.190808 29.583,-4.0761072 44.91469,-6.1158342 0,1.270417 -0.0771,3.3369112 0.0123,5.3961912 0.67786,15.62571 1.3495,31.251939 2.13103,46.872617 0.1153,2.30443 0.31238,4.82467 1.314762,6.82192 2.58636,5.15334 0.67414,8.17664 -3.836562,10.75327 -7.158517,4.08915 -14.169191,8.43707 -22.183359,13.239341 0,-7.634101 0,-14.022941 0,-20.090191 -6.782795,0 -13.033371,-0.15569 -19.260818,0.15385 -1.033272,0.0514 -2.379646,1.98 -2.869717,3.30443 -1.71154,4.62551 -3.111084,9.36644 -4.779526,14.52869 -8.524784,-4.5248 -15.1335936,-10.43083 -20.5306146,-17.69775 -0.51846,-0.69809 -0.148298,-2.43661 0.334716,-3.43898 4.673181,-9.69785 9.4587966,-19.34152 14.3542666,-29.363632 m 23.995136,21.623682 c 2.608986,0 5.217968,0 8.304947,0 -0.878392,-9.9668 -1.698132,-19.268137 -2.517876,-28.569468 -0.555756,-0.121399 -1.111515,-0.242805 -1.667271,-0.364212 -4.174255,9.389687 -8.348507,18.77937 -12.860221,28.92816 3.480068,0 5.634132,0 8.740421,0.006 z"
   id="path7"
   style="fill:#333333" /></svg>
